<?xml version="1.0" standalone="no"?>
<!DOCTYPE svg PUBLIC "-//W3C//DTD SVG 20010904//EN"
 "http://www.w3.org/TR/2001/REC-SVG-20010904/DTD/svg10.dtd">
<svg version="1.0" xmlns="http://www.w3.org/2000/svg"
 width="512.000000pt" height="512.000000pt" viewBox="0 0 512.000000 512.000000"
 preserveAspectRatio="xMidYMid meet">

<g transform="translate(0.000000,512.000000) scale(0.100000,-0.100000)"
fill="#000000" stroke="none">
<path d="M2315 5109 c-800 -83 -1501 -518 -1927 -1196 -604 -961 -490 -2237
274 -3068 425 -462 951 -737 1583 -827 119 -17 512 -16 635 1 622 86 1148 360
1572 820 349 378 572 861 650 1406 17 118 17 512 0 630 -59 416 -191 769 -410
1099 -92 140 -185 254 -315 385 -399 404 -893 653 -1462 737 -123 18 -478 26
-600 13z m446 -480 c634 -64 1195 -405 1541 -934 86 -131 181 -330 232 -485
141 -429 141 -871 0 -1300 -306 -933 -1234 -1529 -2206 -1415 -814 95 -1489
644 -1742 1415 -141 429 -141 871 0 1300 301 920 1217 1518 2175 1419z"/>
<path d="M3530 3887 c-379 -140 -1487 -575 -1528 -600 -63 -37 -137 -113 -174
-177 -46 -78 -609 -1550 -615 -1606 -17 -157 134 -308 291 -291 61 6 1522 601
1601 651 66 43 144 129 177 197 14 30 160 380 324 779 l298 725 0 75 c1 85
-14 121 -73 183 -79 84 -186 106 -301 64z m-849 -957 c204 -64 316 -286 248
-492 -67 -205 -285 -315 -491 -247 -205 67 -315 285 -247 491 67 205 282 314
490 248z"/>
</g>
</svg>
