<?xml version="1.0" standalone="no"?>
<!DOCTYPE svg PUBLIC "-//W3C//DTD SVG 20010904//EN"
 "http://www.w3.org/TR/2001/REC-SVG-20010904/DTD/svg10.dtd">
<svg version="1.0" xmlns="http://www.w3.org/2000/svg"
 width="512.000000pt" height="512.000000pt" viewBox="0 0 512.000000 512.000000"
 preserveAspectRatio="xMidYMid meet">

<g transform="translate(0.000000,512.000000) scale(0.100000,-0.100000)"
fill="#000000" stroke="none">
<path d="M2345 5109 c-793 -68 -1520 -512 -1951 -1191 -315 -496 -450 -1122
-369 -1708 135 -969 806 -1775 1735 -2084 269 -89 675 -130 1235 -124 l320 3
63 34 c75 41 135 103 170 179 24 50 27 69 27 162 0 119 -16 168 -82 248 -70
85 -156 124 -310 141 -162 17 -264 85 -330 218 -34 69 -37 82 -37 162 0 65 6
100 23 143 25 64 94 147 154 185 92 58 79 57 647 63 499 6 529 7 603 28 342
95 610 313 757 616 140 289 156 569 54 986 -46 189 -98 330 -189 515 -231 470
-590 849 -1050 1108 -437 246 -964 359 -1470 316z m512 -544 c82 -40 138 -97
180 -184 25 -50 28 -67 28 -156 0 -93 -2 -105 -33 -167 -40 -83 -119 -158
-200 -189 -44 -18 -77 -23 -147 -24 -80 0 -97 4 -155 31 -239 115 -299 416
-121 607 120 129 289 160 448 82z m-1309 -497 c250 -92 322 -419 136 -618
-184 -197 -516 -141 -625 104 -83 188 -4 407 180 500 93 48 204 53 309 14z
m2324 -265 c249 -117 298 -441 96 -628 -78 -73 -146 -99 -259 -99 -80 0 -93 3
-162 37 -131 65 -206 177 -215 318 -8 133 40 240 145 326 109 88 267 106 395
46z m-2663 -993 c120 -20 223 -93 279 -198 115 -216 3 -480 -232 -548 -180
-51 -373 40 -454 214 -24 50 -27 69 -27 157 1 90 4 106 30 160 53 111 164 195
283 215 26 4 49 8 52 9 3 0 34 -4 69 -9z"/>
</g>
</svg>
