<?xml version="1.0" standalone="no"?>
<!DOCTYPE svg PUBLIC "-//W3C//DTD SVG 20010904//EN"
 "http://www.w3.org/TR/2001/REC-SVG-20010904/DTD/svg10.dtd">
<svg version="1.0" xmlns="http://www.w3.org/2000/svg"
 width="3840.000000pt" height="2160.000000pt" viewBox="0 0 3840.000000 2160.000000"
 preserveAspectRatio="xMidYMid meet">
<metadata>
Created by potrace 1.16, written by Peter Selinger 2001-2019
</metadata>
<g transform="translate(0.000000,2160.000000) scale(0.100000,-0.100000)"
fill="#000000" stroke="none">
<path d="M1756 14718 c-2 -7 -9 -65 -15 -128 -42 -440 -217 -895 -475 -1240
-263 -352 -638 -618 -1068 -757 l-148 -48 0 -627 0 -628 530 0 529 0 4 -1307
c3 -1284 3 -1310 24 -1440 56 -342 157 -613 316 -847 81 -120 284 -323 403
-403 295 -200 675 -318 1101 -342 76 -5 442 -8 813 -7 l675 1 3 767 2 766
-437 5 c-369 3 -450 7 -513 21 -142 33 -269 103 -346 189 -55 64 -117 185
-146 292 l-23 80 -3 1113 -3 1112 706 0 705 0 0 730 0 730 -705 0 -705 0 0
990 0 990 -610 0 c-480 0 -611 -3 -614 -12z"/>
<path d="M22815 14718 c-3 -7 -4 -290 -3 -628 l3 -615 387 -3 388 -2 2 -3263
3 -3262 884 -3 c618 -1 887 1 891 9 4 5 6 120 6 254 -1 160 2 241 9 237 6 -3
37 -27 70 -53 220 -171 523 -328 790 -409 119 -36 284 -70 420 -86 164 -20
555 -15 715 10 403 64 764 212 1055 435 87 66 256 232 343 336 419 500 650
1243 666 2144 28 1505 -532 2523 -1574 2865 -436 143 -973 170 -1419 70 -321
-72 -614 -192 -853 -350 l-108 -71 0 1198 0 1199 -1335 0 c-1059 0 -1337 -3
-1340 -12z m3830 -3328 c109 -13 244 -57 335 -110 89 -52 214 -170 277 -262
144 -208 233 -486 264 -821 15 -168 6 -630 -16 -787 -73 -528 -251 -855 -547
-1006 -137 -69 -346 -112 -498 -100 -170 13 -351 71 -480 154 -279 180 -445
483 -517 942 -22 144 -25 616 -5 780 98 788 453 1193 1067 1219 17 0 70 -4
120 -9z"/>
<path d="M29670 14100 l0 -630 390 0 390 0 0 -2635 0 -2635 -330 0 -330 0 2
-627 3 -628 1608 -3 1607 -2 0 630 0 630 -340 0 -340 0 0 3265 0 3265 -1330 0
-1330 0 0 -630z"/>
<path d="M16140 12814 c-463 -52 -797 -160 -1120 -360 -178 -110 -382 -288
-486 -424 l-39 -51 -3 385 -2 386 -1200 0 -1200 0 0 -635 0 -635 385 0 385 0
2 -1640 3 -1640 -327 0 -328 0 0 -630 0 -630 1593 2 1592 3 3 628 2 627 -325
0 -325 0 0 1113 c0 734 4 1134 11 1173 24 136 99 308 182 420 196 259 485 398
852 408 514 15 775 -202 825 -685 6 -64 10 -535 10 -1265 l0 -1164 -320 0
-320 0 0 -630 0 -630 1588 2 1587 3 0 625 0 625 -333 3 -332 2 2 1153 3 1152
28 90 c80 255 241 465 449 583 233 133 590 176 877 105 307 -75 479 -296 520
-667 7 -62 11 -501 11 -1256 l0 -1160 -315 0 -315 0 0 -630 0 -630 1578 2
1577 3 3 628 2 627 -325 0 -325 0 -1 1133 c0 622 -2 1141 -4 1152 -1 11 -6 63
-9 115 -10 139 -43 356 -78 510 -260 1146 -1035 1744 -2208 1707 -389 -12
-725 -93 -1048 -252 -320 -157 -569 -366 -734 -613 l-36 -54 -33 49 c-97 142
-259 319 -383 419 -289 233 -613 369 -1021 430 -95 14 -498 27 -575 18z"/>
<path d="M37501 12809 c-327 -35 -648 -150 -923 -331 -158 -105 -343 -287
-439 -430 l-64 -98 -5 403 -5 402 -1208 3 -1207 2 2 -637 3 -638 348 -3 347
-2 0 -1640 0 -1640 -320 0 -320 0 0 -630 0 -630 1580 0 1580 0 0 630 0 630
-320 0 -320 0 0 888 c0 959 3 1005 55 1197 135 495 496 783 1075 854 48 6 284
11 547 11 l463 0 0 835 0 835 -392 -1 c-216 -1 -431 -6 -477 -10z"/>
<path d="M5233 10833 c3 -1721 5 -1930 20 -2032 70 -481 205 -835 439 -1152
54 -73 203 -231 278 -294 239 -204 548 -347 903 -419 221 -45 288 -51 592 -51
258 0 304 3 418 23 554 100 1013 324 1338 655 l99 100 2 -359 3 -359 1093 -3
1092 -2 0 630 0 630 -280 0 -280 0 0 2275 0 2275 -1320 0 -1320 0 0 -635 0
-635 375 0 375 0 0 -1120 c0 -1248 3 -1191 -69 -1366 -131 -318 -407 -526
-781 -587 -356 -59 -653 -7 -813 141 -135 126 -195 303 -211 622 -3 58 -6 887
-6 1843 l0 1737 -975 0 -976 0 4 -1917z"/>
</g>
</svg>
